<svg width="277" height="32" viewBox="0 0 277 32" fill="none" xmlns="http://www.w3.org/2000/svg">
<path d="M24.5593 24.7284L21.5287 21.6979L21.2161 21.3852L21.1961 21.4053L21.5062 21.7179L25.1208 25.3326L25.1434 25.3125L24.5593 24.7284ZM18.4945 6.44653L18.4907 6.45029L21.525 9.48456L21.5287 9.4808L18.4945 6.44653ZM21.525 3.41602L21.5187 3.42227L24.553 6.45654L24.5593 6.45029L21.525 3.41602Z" fill="#E93B3B"/>
<path d="M43.048 15.5868C43.048 17.2153 42.4151 18.7487 41.2607 19.9006L31.7802 29.3849C30.6258 30.5356 29.0961 31.1722 27.4664 31.1722C25.8367 31.1722 24.3046 30.5356 23.1501 29.3849L18.4937 24.7284L13.6696 19.9006C12.5152 18.7499 11.8823 17.2165 11.8823 15.5868C11.8823 13.9571 12.5152 12.425 13.6696 11.2731L17.0141 7.92987L20.0446 10.9604L16.7014 14.3036C16.3587 14.6463 16.1711 15.1016 16.1711 15.5868C16.1711 16.0721 16.3587 16.5261 16.7014 16.8701L21.2153 21.384L21.1953 21.404L21.5054 21.7167L25.12 25.3313L25.1426 25.3113L26.1844 26.3531C26.5246 26.6958 26.9824 26.8847 27.4677 26.8847C27.9529 26.8847 28.407 26.6971 28.7509 26.3531L38.2314 16.8688C38.5741 16.5261 38.763 16.0709 38.763 15.5856C38.763 15.1003 38.5754 14.6463 38.2314 14.3023L28.7509 4.81805C28.4082 4.47786 27.9492 4.28774 27.4677 4.28774C26.9861 4.28774 26.5246 4.47911 26.1844 4.81805L26.0293 4.97314L22.9951 1.94263L23.1501 1.78754C24.3046 0.636866 25.8342 0.000244141 27.4664 0.000244141C29.0986 0.000244141 30.6258 0.636866 31.7802 1.78754L41.2607 11.2718C42.4151 12.4225 43.048 13.9559 43.048 15.5856V15.5868Z" fill="#E93B3B"/>
<path d="M24.5573 6.45023L21.523 3.41596L21.0778 2.9707L21.0715 2.97696L21.5168 3.42222L24.5511 6.45649L24.9963 6.90175L25.0026 6.89549L24.5573 6.45023ZM18.4925 24.7284L18.4888 24.7321L21.5193 27.7627L21.523 27.7589L18.4925 24.7284ZM21.5268 21.6979L21.5043 21.7179L24.5348 24.7484L24.5573 24.7284L21.5268 21.6979Z" fill="#E93B3B"/>
<path d="M31.1694 15.5873C31.1694 17.2157 30.5328 18.7491 29.3821 19.901L26.0152 23.268L22.9847 20.2375L26.3516 16.8705C26.6943 16.5278 26.8832 16.0725 26.8832 15.5873C26.8832 15.102 26.6956 14.648 26.3516 14.304L21.5276 9.47995L16.8686 4.82098C16.5259 4.48079 16.0706 4.29067 15.5853 4.29067C15.1001 4.29067 14.646 4.48204 14.3021 4.82098L4.81781 14.3053C4.47761 14.648 4.2875 15.1032 4.2875 15.5885C4.2875 16.0738 4.47886 16.5278 4.81781 16.8718L14.3021 26.356C14.6448 26.6987 15.1001 26.8876 15.5853 26.8876C16.0706 26.8876 16.5246 26.7 16.8686 26.356L17.0137 26.211L20.0442 29.2415L19.8991 29.3866C18.7484 30.5372 17.215 31.1739 15.5853 31.1739C13.9556 31.1739 12.4235 30.5372 11.2716 29.3866L1.78729 19.901C0.636621 18.7504 0 17.217 0 15.5873C0 13.9576 0.636621 12.4254 1.78729 11.2735L11.2716 1.79047C12.4222 0.639795 13.9556 0.00317383 15.5841 0.00317383C17.2125 0.00317383 18.7459 0.639795 19.8979 1.79047L21.0785 2.97115L21.0723 2.97741L21.5176 3.42267L24.5518 6.45694L24.9971 6.9022L25.0033 6.89594L29.3821 11.2747C30.5328 12.4254 31.1694 13.9588 31.1694 15.5885V15.5873Z" fill="#E93B3B"/>
<path fill-rule="evenodd" clip-rule="evenodd" d="M25.0025 6.89424L24.9963 6.90175L24.551 6.45649L21.518 3.42222L21.0728 2.97696L21.079 2.9707L21.5243 3.41596L24.5585 6.45023L25.0025 6.89424Z" fill="#E93B3B"/>
<path fill-rule="evenodd" clip-rule="evenodd" d="M25.1411 25.3123L25.1186 25.3311L21.504 21.7177L21.1938 21.4038L21.2139 21.3838L21.5278 21.6977L24.5583 24.7282L25.1411 25.3123Z" fill="#E93B3B"/>
<path d="M50.5557 19.9027H54.7043C55.0008 21.8451 56.3841 22.7019 58.3915 22.7019C60.3989 22.7019 61.4858 21.9452 61.4858 20.7595C61.4858 19.1461 59.3458 18.9822 57.0407 18.5207C54.0114 17.9278 51.0485 17.1049 51.0485 13.4177C51.0485 9.73056 54.0777 8.01831 57.93 8.01831C62.3751 8.01831 64.844 10.2246 65.1729 13.6153H61.1231C60.9255 11.8043 59.7735 11.1464 57.8637 11.1464C56.1189 11.1464 54.967 11.8043 54.967 13.0225C54.967 14.4708 57.2058 14.6034 59.6097 15.0962C62.4413 15.689 65.5694 16.4795 65.5694 20.4293C65.5694 23.82 62.6715 25.8612 58.4578 25.8612C53.5524 25.8612 50.8196 23.4911 50.5557 19.9015V19.9027Z" fill="white"/>
<path d="M66.5171 8.47828H68.8547V3.21021H73.2335V8.47828H76.1314V11.4413H73.2335V20.3965C73.2335 21.6472 73.9252 22.075 74.9132 22.075C75.4723 22.075 76.2303 22.0424 76.2303 22.0424V25.3344C76.2303 25.3344 75.2097 25.4007 73.4324 25.4007C71.2599 25.4007 68.856 24.5452 68.856 21.3508V11.4413H66.5183V8.47828H66.5171Z" fill="white"/>
<path d="M88.6506 23.4909H88.5843C87.7288 24.7754 86.5106 25.7622 83.6127 25.7622C80.1557 25.7622 77.7192 23.9511 77.7192 20.5929C77.7192 16.872 80.7485 15.6876 84.5019 15.161C87.3011 14.7658 88.5843 14.5356 88.5843 13.2511C88.5843 11.9666 87.63 11.2425 85.7527 11.2425C83.6452 11.2425 82.6246 11.9992 82.4933 13.6126H78.5097C78.641 10.6496 80.8473 8.0481 85.7864 8.0481C90.7256 8.0481 92.8981 10.3194 92.8981 14.2705V22.863C92.8981 24.1475 93.0957 24.9042 93.4909 25.2006V25.3657H89.1784C88.9145 25.0368 88.7507 24.2463 88.6519 23.4896L88.6506 23.4909ZM88.6831 19.4085V16.8732C87.8927 17.3348 86.6745 17.5974 85.5551 17.8613C83.2174 18.3879 82.0655 18.9144 82.0655 20.4954C82.0655 22.0763 83.1186 22.6354 84.6996 22.6354C87.2673 22.6354 88.6831 21.0544 88.6831 19.4085Z" fill="white"/>
<path d="M99.6448 11.1777H99.7436C100.764 9.26783 101.916 8.28101 103.892 8.28101C104.386 8.28101 104.683 8.31352 104.945 8.41233V12.3309H104.847C101.916 12.0344 99.8087 13.5816 99.8087 17.1374V25.3685H95.3311V8.47862H99.6436V11.1789L99.6448 11.1777Z" fill="white"/>
<path d="M106.261 8.47828H108.598V3.21021H112.977V8.47828H115.874V11.4413H112.977V20.3965C112.977 21.6472 113.669 22.075 114.655 22.075C115.216 22.075 115.972 22.0424 115.972 22.0424V25.3344C115.972 25.3344 114.952 25.4007 113.173 25.4007C111.001 25.4007 108.597 24.5452 108.597 21.3508V11.4413H106.259V8.47828H106.261Z" fill="white"/>
<path d="M128.671 25.3682V23.3933H128.572C127.42 24.9404 126.103 25.8297 123.732 25.8297C119.978 25.8297 117.871 23.4258 117.871 19.7386V8.4783H122.316V18.9807C122.316 20.9556 123.205 22.0425 125.115 22.0425C127.222 22.0425 128.506 20.4615 128.506 18.2227V8.47705H132.983V25.3669H128.671V25.3682Z" fill="white"/>
<path d="M136.148 8.47858H140.46V10.5861H140.559C141.646 9.10394 143.226 8.01831 145.531 8.01831C150.008 8.01831 152.872 11.6729 152.872 16.941C152.872 22.2091 149.91 25.8637 145.563 25.8637C143.193 25.8637 141.645 24.9094 140.69 23.4598H140.624V30.9004H136.146V8.47858H136.148ZM148.33 17.0711C148.33 13.878 147.21 11.6392 144.445 11.6392C141.68 11.6392 140.527 14.0431 140.527 17.0711C140.527 20.0991 141.942 22.1415 144.609 22.1415C146.88 22.1415 148.33 20.2655 148.33 17.0711Z" fill="white"/>
<path d="M154.19 20.5942H158.997V25.3683H154.19V20.5942Z" fill="white"/>
<path d="M161.166 19.9027H165.314C165.611 21.8451 166.993 22.7019 169.001 22.7019C171.01 22.7019 172.096 21.9452 172.096 20.7595C172.096 19.1461 169.956 18.9822 167.651 18.5207C164.621 17.9278 161.658 17.1049 161.658 13.4177C161.658 9.73056 164.688 8.01831 168.54 8.01831C172.985 8.01831 175.454 10.2246 175.783 13.6153H171.733C171.535 11.8043 170.383 11.1464 168.474 11.1464C166.729 11.1464 165.577 11.8043 165.577 13.0225C165.577 14.4708 167.816 14.6034 170.22 15.0962C173.051 15.689 176.179 16.4795 176.179 20.4293C176.179 23.82 173.283 25.8612 169.068 25.8612C164.162 25.8612 161.429 23.4911 161.166 19.9015V19.9027Z" fill="white"/>
<path d="M177.527 16.9058C177.527 11.9016 180.918 8.01685 185.857 8.01685C191.289 8.01685 194.187 12.1655 194.187 18.1903H181.94C182.269 20.7918 183.717 22.404 186.252 22.404C187.997 22.404 189.018 21.6135 189.512 20.3303H193.923C193.298 23.3258 190.631 25.861 186.285 25.861C180.688 25.861 177.527 21.9425 177.527 16.9058ZM182.005 15.096H189.512C189.381 12.956 187.965 11.4739 185.923 11.4739C183.553 11.4739 182.4 12.8897 182.005 15.096Z" fill="white"/>
<path d="M195.652 16.9396C195.652 11.9016 198.944 8.01685 204.081 8.01685C208.46 8.01685 211.16 10.5521 211.752 14.2067H207.373C207.077 12.7246 205.925 11.6052 204.279 11.6052C201.58 11.6052 200.196 13.6789 200.196 16.9383C200.196 20.1977 201.481 22.2714 204.214 22.2714C206.025 22.2714 207.308 21.3171 207.604 19.4072H211.917C211.62 22.9956 208.823 25.8598 204.311 25.8598C198.978 25.8598 195.652 21.975 195.652 16.937V16.9396Z" fill="white"/>
<path d="M224.736 25.3682V23.3933H224.637C223.485 24.9404 222.168 25.8297 219.797 25.8297C216.044 25.8297 213.936 23.4258 213.936 19.7386V8.4783H218.381V18.9807C218.381 20.9556 219.27 22.0425 221.18 22.0425C223.288 22.0425 224.571 20.4615 224.571 18.2227V8.47705H229.049V25.3669H224.736V25.3682Z" fill="white"/>
<path d="M236.526 11.1777H236.624C237.645 9.26783 238.797 8.28101 240.773 8.28101C241.267 8.28101 241.564 8.31352 241.826 8.41233V12.3309H241.727C238.797 12.0344 236.69 13.5816 236.69 17.1374V25.3685H232.212V8.47862H236.524V11.1789L236.526 11.1777Z" fill="white"/>
<path d="M243.585 1.82715H248.063V5.84449H243.585V1.82715ZM243.585 8.47853H248.063V25.3684H243.585V8.47853Z" fill="white"/>
<path d="M249.853 8.47828H252.191V3.21021H256.57V8.47828H259.466V11.4413H256.57V20.3965C256.57 21.6472 257.261 22.075 258.248 22.075C258.809 22.075 259.565 22.0424 259.565 22.0424V25.3344C259.565 25.3344 258.545 25.4007 256.766 25.4007C254.594 25.4007 252.19 24.5452 252.19 21.3508V11.4413H249.852V8.47828H249.853Z" fill="white"/>
<path d="M262.512 27.3756H264.093C265.871 27.3756 266.596 26.4538 266.596 25.0705C266.596 24.1487 266.267 23.0618 265.311 20.4941L260.768 8.47705H265.475L267.978 16.0827C268.505 17.6299 269.065 19.7699 269.065 19.7699H269.131C269.131 19.7699 269.593 17.6299 270.119 16.0827L272.489 8.47705H277L271.106 25.7947C269.822 29.5481 268.571 30.8976 265.146 30.8976H262.512V27.3743V27.3756Z" fill="white"/>
</svg>
